<svg width="68" height="51" viewBox="0 0 68 51" fill="none" xmlns="http://www.w3.org/2000/svg">
<path d="M32.7636 22.4311C32.7636 20.268 31.3478 18.5616 29.0186 18.217C30.2517 17.8641 31.4308 16.7514 31.4391 14.8997C31.4308 12.7117 29.7493 11.2461 26.6853 11.2461H22.3467V11.462H22.6207C23.3846 11.462 24.024 12.064 24.024 12.8196V24.9595C24.0032 25.7151 23.3846 26.3171 22.6248 26.3171H22.3467V26.5372H27.6651C30.9202 26.5372 32.7552 24.8972 32.7552 22.4311H32.7636ZM25.4564 25.74V11.9477H26.6106C28.6823 11.9477 29.795 13.0812 29.8033 15.0574C29.795 17.8682 27.524 18.2585 26.1912 18.2543V18.4619C28.3087 18.4578 31.1277 19.0017 31.1277 22.2774C31.1277 24.4862 29.8407 25.7525 27.5987 25.7442H25.4564V25.74Z" fill="white"/>
<path d="M31.4307 26.3197V26.5397H35.8274V26.3238H35.6364C35.0759 26.3238 34.4947 25.8298 34.8019 24.9662L36.2634 21.2337H42.1465L43.5415 24.9537C43.8612 25.8298 43.2758 26.3238 42.7111 26.3238H42.5201V26.5397H47.44V26.3197H47.2573C46.5889 26.3197 45.7793 25.917 45.3392 24.9454L39.5018 10.9414H39.3066C39.3066 11.423 38.497 13.1917 38.497 13.1917L33.5439 24.9454C33.1038 25.917 32.2942 26.3197 31.63 26.3197H31.4348H31.4307ZM39.2693 13.5653L41.9015 20.5777H36.5208L39.2693 13.5653Z" fill="white"/>
<path d="M57.9377 26.0234H57.9336L57.9377 26.0316V26.0234Z" fill="white"/>
<path d="M0.707654 44.225C0.931851 44.5364 1.22248 44.8021 1.54217 45.0014C1.57538 45.0221 1.61275 45.0429 1.64596 45.0637C1.66672 45.155 1.68748 45.2463 1.70824 45.3418C1.72069 45.3917 1.729 45.4415 1.74145 45.4913L1.79543 45.6325L1.90337 45.9189C1.95319 46.0061 1.99886 46.0975 2.04868 46.1847C2.09851 46.276 2.14418 46.3673 2.21061 46.4462C2.44311 46.7867 2.71713 47.1064 3.04927 47.3721C3.70941 47.9118 4.55637 48.2273 5.4241 48.3519C6.30013 48.4806 7.20522 48.4432 8.11032 48.3187C9.01541 48.19 9.92881 47.9741 10.8381 47.6959C11.2948 47.5589 11.7514 47.397 12.204 47.2475C12.6565 47.0939 13.1174 46.9444 13.5865 46.8033C14.6286 46.4794 15.6998 46.1763 16.8 45.8525C18.2366 46.9486 19.7188 47.9616 21.2964 48.8086C21.8777 49.1158 22.4755 49.3981 23.0817 49.6514C23.692 49.8964 24.319 50.104 24.9583 50.27C26.2329 50.5814 27.5823 50.6977 28.8776 50.4278C29.5212 50.2991 30.1522 50.0915 30.7293 49.7884C31.0241 49.6556 31.3106 49.4646 31.5763 49.2611C31.8462 49.0535 32.087 48.8044 32.2863 48.5138C32.4856 48.2273 32.635 47.9035 32.7181 47.5589C32.8011 47.2184 32.8177 46.8655 32.7845 46.5251C32.743 46.1639 32.6475 45.8234 32.5105 45.5038C32.5561 45.4622 32.6018 45.4249 32.6433 45.3834C33.0087 45.0471 33.3242 44.6485 33.565 44.1959C33.673 44.2375 33.7809 44.2831 33.8889 44.3246C33.9594 44.2956 34.03 44.2665 34.1006 44.2375C34.3373 44.6734 34.6445 45.0554 34.9974 45.3834C35.0431 45.4249 35.0846 45.4664 35.1302 45.5038C34.9932 45.8234 34.8977 46.168 34.8562 46.5251C34.8189 46.8655 34.8355 47.2184 34.9227 47.5589C35.0057 47.9035 35.1552 48.2273 35.3544 48.5138C35.5496 48.8044 35.7945 49.0535 36.0644 49.2611C36.3301 49.4646 36.6207 49.6556 36.9114 49.7884C37.4926 50.0915 38.1195 50.2991 38.7631 50.4278C40.0584 50.6977 41.4078 50.5814 42.6824 50.27C43.3218 50.1081 43.9445 49.8964 44.559 49.6514C45.1652 49.3981 45.763 49.1158 46.3443 48.8086C47.922 47.9658 49.4041 46.9486 50.8407 45.8525C51.9367 46.1763 53.0121 46.4794 54.0542 46.8033C54.5233 46.9444 54.98 47.0939 55.4367 47.2475C55.8893 47.4011 56.346 47.563 56.8027 47.6959C57.7119 47.9741 58.6211 48.19 59.5304 48.3187C60.4355 48.4432 61.3406 48.4806 62.2166 48.3519C63.0885 48.2273 63.9313 47.9118 64.5914 47.3721C64.9236 47.1064 65.1976 46.7867 65.4301 46.4462C65.4924 46.3673 65.5422 46.276 65.592 46.1847C65.6418 46.0933 65.6875 46.0061 65.7373 45.9189L65.8453 45.6325L65.8993 45.4913C65.9117 45.4415 65.92 45.3917 65.9325 45.3418C65.9532 45.2505 65.974 45.155 65.9947 45.0637C66.0321 45.0429 66.0653 45.0221 66.0985 45.0014C66.4182 44.7979 66.7047 44.5364 66.9331 44.225C67.3939 43.5981 67.5766 42.8466 67.6264 42.1366C67.6347 42.0453 67.6306 41.9581 67.6347 41.8709C67.6347 41.7837 67.6389 41.6924 67.6347 41.5969C67.6347 41.4101 67.6098 41.2191 67.5683 41.0281C67.4935 40.6503 67.3399 40.2766 67.1199 39.9528C66.8998 39.629 66.6217 39.3508 66.3103 39.1266C66.0031 38.9065 65.6709 38.7322 65.3305 38.5952C64.6496 38.3253 63.9396 38.1883 63.2296 38.126C62.5197 38.0679 61.8056 38.0762 61.0915 38.1883C60.3815 38.2962 59.6799 38.4914 59.0156 38.7654C57.6787 39.3093 56.512 40.1189 55.4367 40.9741C54.9343 41.3727 54.4486 41.7879 53.9753 42.1906C53.4563 41.9747 52.9415 41.7547 52.4267 41.5429C52.2315 41.4599 52.0322 41.381 51.8329 41.3021C51.9741 41.1485 52.053 41.0406 52.053 41.0406C52.053 41.0406 51.0233 40.1147 49.8899 40.2393C49.7363 40.2559 49.5951 40.2932 49.454 40.3431C49.3502 40.3015 49.2464 40.2559 49.1426 40.2144C49.5661 39.7244 49.9771 39.2262 50.3466 38.7239C50.5044 38.8318 51.5382 39.4919 52.5637 39.2636C53.6763 39.0145 54.3489 37.8063 54.3489 37.8063C54.3489 37.8063 53.2238 37.0009 52.1111 37.25C51.5797 37.3704 51.1479 37.7067 50.8407 38.0305C51.3679 37.2624 51.8371 36.486 52.2564 35.718C52.3021 35.7387 53.5061 36.3366 54.5482 35.9338C55.6111 35.5228 56.0968 34.2275 56.0968 34.2275C56.0968 34.2275 54.8638 33.6005 53.8009 34.0074C53.257 34.2192 52.8626 34.6592 52.6093 35.0412C53.0536 34.1652 53.4314 33.3016 53.7552 32.4671C53.9379 32.5252 55.117 32.8657 56.0346 32.355C57.0269 31.7987 57.3299 30.4493 57.3299 30.4493C57.3299 30.4493 56.0221 29.9968 55.0257 30.5531C54.598 30.7939 54.2991 31.18 54.0957 31.5412C54.4029 30.6611 54.6479 29.8224 54.8472 29.0502C54.8928 29.0543 56.2297 29.2204 57.0808 28.4897C57.9444 27.7465 57.9735 26.3639 57.9735 26.3639C57.9735 26.3639 56.6034 26.1813 55.7356 26.9244C55.4699 27.1528 55.2789 27.4434 55.1502 27.7382C55.2416 27.3023 55.3122 26.8995 55.3744 26.53C55.7273 26.2145 56.2629 25.6291 56.3709 24.8859C56.5328 23.7566 55.6402 22.6979 55.6402 22.6979C55.6402 22.6979 54.4901 23.466 54.3282 24.5953C54.2161 25.3883 54.623 26.1481 54.8721 26.53C54.8056 27.0656 54.7101 27.6884 54.569 28.3817C54.5814 27.9084 54.515 27.2524 54.1455 26.7335C53.4854 25.8035 52.107 25.6498 52.107 25.6498C52.107 25.6498 51.8039 26.9992 52.464 27.9292C53.0411 28.7388 54.1538 28.9588 54.4361 29.0003C54.2493 29.8224 54.0002 30.7275 53.6722 31.6824C53.7386 31.2257 53.7428 30.6278 53.4729 30.1047C52.9539 29.0917 51.6129 28.7429 51.6129 28.7429C51.6129 28.7429 51.1188 30.0341 51.6378 31.0513C52.0862 31.9191 53.1325 32.301 53.4189 32.3924C53.1075 33.2227 52.7339 34.0863 52.2855 34.9623C52.4184 34.5181 52.5138 33.9161 52.3187 33.3473C51.9492 32.2678 50.6746 31.7322 50.6746 31.7322C50.6746 31.7322 49.9978 32.9404 50.3674 34.0199C50.687 34.9499 51.6793 35.4772 51.945 35.6059C51.505 36.4155 50.9984 37.2292 50.4213 38.043C50.6289 37.6195 50.8324 37.0092 50.7161 36.3947C50.5044 35.2737 49.3211 34.5596 49.3211 34.5596C49.3211 34.5596 48.4783 35.6598 48.69 36.7767C48.8727 37.7565 49.8027 38.4249 50.0311 38.5785C49.6491 39.0851 49.2381 39.5874 48.7938 40.0815C48.7149 40.0483 48.6361 40.0151 48.5613 39.9819C48.6485 39.7327 48.7025 39.4587 48.69 39.1723C48.6402 38.0347 47.5732 37.1545 47.5732 37.1545C47.5732 37.1545 46.6349 38.072 46.6307 39.1764C45.6302 38.7778 44.6254 38.4125 43.6082 38.1301C43.903 37.8312 44.1978 37.5364 44.476 37.2209C48.0631 33.2269 50.0767 27.9873 50.5542 22.673C50.932 18.4174 50.0269 14.2116 49.4374 10.0432C49.0637 7.56043 48.7316 2.55336 48.4617 0H19.9969H19.2994C19.2911 0.120402 18.7016 6.63458 18.685 6.94597C18.2656 12.1772 16.7419 17.367 17.2152 22.673C17.6013 26.9327 18.9548 31.1219 21.3297 34.6925C22.1517 35.9214 23.0942 37.059 24.1321 38.1011C23.0402 38.4 21.969 38.7903 20.902 39.2221C20.9228 38.1011 19.9596 37.1586 19.9596 37.1586C19.9596 37.1586 18.8884 38.0388 18.8427 39.1764C18.8303 39.4753 18.8925 39.7618 18.9839 40.0234C18.9133 40.0524 18.8469 40.0815 18.7763 40.1106C18.7763 40.1106 18.768 40.1106 18.7638 40.1147C18.3113 39.6082 17.8878 39.0934 17.4975 38.5785C17.73 38.4249 18.6559 37.7565 18.8386 36.7767C19.0503 35.6557 18.2075 34.5596 18.2075 34.5596C18.2075 34.5596 17.0242 35.2737 16.8125 36.3947C16.6962 37.0092 16.8997 37.6195 17.1073 38.043C16.5302 37.2292 16.0237 36.4155 15.5836 35.6059C15.8493 35.4813 16.8416 34.9499 17.1612 34.0199C17.5308 32.9404 16.854 31.7322 16.854 31.7322C16.854 31.7322 15.5794 32.272 15.2099 33.3473C15.0148 33.9161 15.1103 34.5139 15.2431 34.9623C14.7947 34.0863 14.4211 33.2227 14.1097 32.3924C14.4003 32.301 15.4466 31.9232 15.8908 31.0513C16.4098 30.0383 15.9157 28.7429 15.9157 28.7429C15.9157 28.7429 14.5747 29.0917 14.0557 30.1047C13.7858 30.6278 13.79 31.2257 13.8564 31.6824C13.5284 30.7275 13.2793 29.8224 13.0925 29.0003C13.3707 28.9547 14.4875 28.7346 15.0646 27.9292C15.7247 26.9992 15.4216 25.6498 15.4216 25.6498C15.4216 25.6498 14.0474 25.8035 13.3831 26.7335C13.0136 27.2524 12.9472 27.9084 12.9596 28.3817C12.8185 27.6884 12.723 27.0656 12.6565 26.53C12.9098 26.1481 13.3125 25.3924 13.2004 24.5953C13.0385 23.466 11.8885 22.6979 11.8885 22.6979C11.8885 22.6979 10.9958 23.7566 11.1577 24.8859C11.2657 25.6291 11.8013 26.2145 12.1542 26.53C12.2123 26.8995 12.287 27.3023 12.3784 27.7382C12.2455 27.4476 12.0587 27.1569 11.793 26.9244C10.9252 26.1813 9.55514 26.3639 9.55514 26.3639C9.55514 26.3639 9.58421 27.7465 10.4478 28.4897C11.2989 29.2204 12.6358 29.0543 12.6814 29.0502C12.8766 29.8224 13.1257 30.6611 13.4329 31.5412C13.2295 31.18 12.9306 30.7939 12.5029 30.5531C11.5065 30.0009 10.1987 30.4493 10.1987 30.4493C10.1987 30.4493 10.5018 31.7987 11.494 32.355C12.4116 32.8657 13.5907 32.5252 13.7734 32.4671C14.0972 33.3016 14.475 34.1652 14.9193 35.0412C14.666 34.6592 14.2716 34.2192 13.7277 34.0074C12.6648 33.5964 11.4318 34.2275 11.4318 34.2275C11.4318 34.2275 11.9217 35.5228 12.9804 35.9338C14.0266 36.3366 15.2307 35.7387 15.2722 35.718C15.6915 36.486 16.1607 37.2624 16.6879 38.0305C16.3807 37.7108 15.9531 37.3704 15.4175 37.25C14.3048 37.0009 13.1797 37.8063 13.1797 37.8063C13.1797 37.8063 13.8564 39.0145 14.9649 39.2636C15.9904 39.4919 17.0242 38.8277 17.182 38.7239C17.5598 39.2387 17.9792 39.7452 18.4151 40.2476C18.3196 40.2891 18.2241 40.3265 18.1328 40.3638C17.9792 40.3057 17.8172 40.26 17.6429 40.2393C16.5094 40.1147 15.4798 41.0406 15.4798 41.0406C15.4798 41.0406 15.5711 41.1651 15.7289 41.3353C15.5545 41.4059 15.3801 41.4724 15.2099 41.5429C14.6951 41.7588 14.1803 41.9789 13.6613 42.1906C13.1838 41.7879 12.6981 41.3769 12.1998 40.9741C11.1245 40.1189 9.95372 39.3051 8.62099 38.7654C7.9567 38.4955 7.25504 38.3004 6.54509 38.1883C5.82682 38.0762 5.11271 38.0679 4.40691 38.126C3.69695 38.1883 2.99114 38.3253 2.3061 38.5952C1.96565 38.7322 1.6335 38.9024 1.32627 39.1266C1.01904 39.3508 0.736717 39.6248 0.516671 39.9528C0.296626 40.2766 0.143008 40.6503 0.0682756 41.0281C0.0309094 41.2149 0.00599705 41.4059 0.00184525 41.5969C-0.00230656 41.6924 0.00184525 41.7837 0.00184525 41.8709C0.00184525 41.9623 0.00184702 42.0495 0.0101506 42.1366C0.0558205 42.8466 0.242651 43.6022 0.703501 44.225H0.707654ZM13.4205 46.2926C12.9513 46.4421 12.4905 46.5998 12.0296 46.7618C11.5729 46.9237 11.1328 47.0856 10.6886 47.2268C9.8001 47.5132 8.91577 47.7374 8.04389 47.8744C7.17201 48.0114 6.30428 48.0571 5.48223 47.9492C4.66017 47.8454 3.88378 47.563 3.27762 47.0856C2.97039 46.8531 2.71712 46.5625 2.49708 46.2552C2.4348 46.1805 2.39328 46.0975 2.34761 46.0186L2.21061 45.7778C2.17739 45.6906 2.14002 45.6075 2.11096 45.5245L2.06114 45.4C2.04869 45.3543 2.04038 45.3128 2.02793 45.2671C2.02793 45.2671 2.02793 45.2671 2.02793 45.263C2.2023 45.3377 2.38498 45.4 2.56351 45.4498C3.25686 45.6408 3.95436 45.6823 4.63111 45.6532C5.98459 45.5909 7.2675 45.2962 8.50889 44.9433C9.45135 44.6734 10.3731 44.3579 11.2698 44.0216C11.3529 44.0714 11.4318 44.1254 11.5065 44.1752C12.15 44.607 12.6731 45.0014 13.08 45.3377C13.4952 45.6698 13.7983 45.9355 14.0017 46.1141C13.8107 46.1763 13.6198 46.2386 13.4288 46.3009L13.4205 46.2926ZM1.9781 44.2416C1.9781 44.2416 1.9781 44.225 1.98226 44.2167C2.00717 44.1337 2.02793 44.0506 2.04868 43.9676C2.07775 43.8887 2.11926 43.8098 2.15248 43.7351C2.16909 43.6977 2.18154 43.6562 2.20645 43.6188L2.27703 43.5109C2.3227 43.4403 2.36422 43.3656 2.4182 43.3033C2.84998 42.7802 3.45615 42.4397 4.07892 42.282C4.70169 42.1159 5.34107 42.12 5.94723 42.1491C6.55339 42.174 7.12634 42.282 7.66608 42.4024C7.93179 42.4812 8.1975 42.5394 8.44246 42.6307C8.56701 42.6764 8.69157 42.7179 8.81197 42.7594C8.93237 42.8051 9.04863 42.8549 9.16488 42.9006C9.59251 43.0791 9.98693 43.2701 10.3523 43.4694C9.66724 43.7102 8.97804 43.9344 8.27224 44.1295C7.06821 44.4616 5.83098 44.7357 4.58959 44.7855C3.97097 44.8104 3.3565 44.7647 2.79186 44.607C2.49708 44.5239 2.21891 44.4035 1.9781 44.2375V44.2416ZM31.6427 48.0571C31.4933 48.2689 31.3064 48.464 31.0864 48.6301C30.8664 48.7961 30.638 48.9497 30.3681 49.066C29.8533 49.3317 29.2887 49.5102 28.7157 49.6223C27.5615 49.8548 26.3409 49.7469 25.1535 49.4521C24.5598 49.2985 23.9744 49.0992 23.3973 48.8626C22.8202 48.6218 22.2514 48.3477 21.6909 48.0488C20.3581 47.3305 19.0835 46.4753 17.8338 45.5411C18.3653 45.3792 18.905 45.2173 19.4447 45.0387C19.6025 44.9889 19.7603 44.935 19.9139 44.881C20.0301 44.8976 20.1505 44.9059 20.2709 44.9017C20.9851 44.8768 21.5954 44.4492 21.9524 44.1337C22.1185 44.0714 22.2846 44.005 22.4548 43.9468C23.0527 44.3828 23.6837 44.8021 24.3522 45.1965V45.1882C24.867 45.4996 25.4067 45.7819 25.9838 46.0227C26.7893 46.359 27.6653 46.604 28.5829 46.7036C29.517 46.8033 30.5051 46.6455 31.3978 46.2179C31.5555 46.1431 31.7133 46.0559 31.8628 45.9646C31.9334 46.1722 31.9832 46.3881 32.0081 46.604C32.0662 47.123 31.9375 47.6378 31.6386 48.0613L31.6427 48.0571ZM20.6778 40.0857C21.1138 39.903 21.5455 39.7244 21.9773 39.5542C21.7531 39.8365 21.1511 40.6877 21.2425 41.6135C21.2881 42.0785 21.5082 42.4895 21.7448 42.8092C21.2881 42.4231 20.8439 42.0328 20.4246 41.6509C20.2419 41.4848 20.0717 41.3187 19.8973 41.1527C20.08 40.9824 20.4412 40.5963 20.6778 40.0857ZM22.9406 43.7724C23.8207 43.4652 24.7175 43.1995 25.6392 43.0542C26.1748 42.9628 26.7228 42.9379 27.2667 42.9462C27.8106 42.9753 28.3545 43.05 28.8776 43.2078C29.0146 43.241 29.1309 43.295 29.2638 43.3365C29.3883 43.3822 29.5212 43.4237 29.6333 43.4901C29.8658 43.6105 30.1024 43.76 30.3183 43.9261C30.7501 44.2582 31.1445 44.6568 31.4476 45.1135C31.5306 45.238 31.6054 45.3667 31.6718 45.4996C31.5182 45.6034 31.3563 45.6947 31.1902 45.7778C30.3889 46.1763 29.4921 46.3341 28.6368 46.2594C27.1131 46.1182 25.7264 45.5577 24.5141 44.8395C24.2899 44.7025 24.0781 44.5654 23.8623 44.4243C23.5467 44.2125 23.2395 44.0008 22.9447 43.7766L22.9406 43.7724ZM34.3372 41.2025C34.4078 40.9783 34.5116 40.7582 34.6237 40.5423C34.6777 40.4344 34.7483 40.3348 34.8106 40.2268C34.877 40.1272 34.9517 40.04 35.0223 39.9445C35.3254 39.575 35.7115 39.2719 36.1433 39.0311C37.0235 38.5619 38.0573 38.3253 39.1118 38.2506C39.6391 38.209 40.1788 38.209 40.7144 38.2506C41.1711 38.2796 41.6237 38.3585 42.0804 38.4498C39.9048 40.5008 37.3016 42.1823 34.3331 43.4486C34.0923 42.7387 34.0798 41.9415 34.3331 41.2025H34.3372ZM33.3201 43.3905C30.5134 42.1657 27.8895 40.5091 25.6683 38.4291C26.0876 38.3502 26.5028 38.2796 26.9221 38.2506C27.4577 38.209 27.9974 38.209 28.5247 38.2506C29.5793 38.3253 30.6131 38.5619 31.4933 39.0311C31.9251 39.2719 32.3153 39.575 32.6143 39.9445C32.6848 40.04 32.7596 40.1313 32.826 40.2268C32.8883 40.3348 32.9547 40.4344 33.0128 40.5423C33.1249 40.7582 33.2246 40.9783 33.2993 41.2025C33.5484 41.9207 33.5443 42.693 33.3201 43.3905ZM35.3627 45.018C35.3627 45.018 35.3503 45.0055 35.342 44.9972C35.0431 44.7149 34.7856 44.3828 34.5905 44.0174C37.6753 42.7428 40.5816 40.9658 43.027 38.6657C43.8366 38.8816 44.642 39.1598 45.4475 39.467C45.298 39.5833 44.3389 40.3514 44.231 41.3976C44.1646 42.0536 44.4469 42.6681 44.7002 43.075C43.8739 42.7843 43.0187 42.5269 42.1094 42.3691C41.5365 42.2695 40.9428 42.228 40.3449 42.2321C39.7471 42.257 39.1409 42.3359 38.5555 42.5062C38.4102 42.5394 38.2607 42.6016 38.1154 42.6515C37.9701 42.7054 37.8206 42.747 37.6753 42.83C37.3888 42.9753 37.1273 43.1372 36.874 43.3282C36.3716 43.7019 35.9191 44.1544 35.562 44.69C35.4915 44.7979 35.425 44.9059 35.3627 45.018ZM47.6853 41.2025C47.5275 41.352 47.3739 41.5014 47.212 41.6509C46.6847 42.1242 46.1325 42.6141 45.5471 43.0957C45.8627 42.747 46.2239 42.228 46.2861 41.6094C46.3899 40.6005 45.6634 39.6829 45.5014 39.4919C45.9415 39.6622 46.3816 39.8407 46.8217 40.0275C47.0833 40.6212 47.5234 41.0613 47.6811 41.2025H47.6853ZM42.9896 44.91C41.8063 45.5909 40.4695 46.1182 38.9997 46.2511C38.1445 46.33 37.2477 46.168 36.4464 45.7695C36.2803 45.6906 36.1184 45.5951 35.9648 45.4913C36.0353 45.3584 36.1059 45.2297 36.189 45.1052C36.4879 44.6485 36.8823 44.2499 37.3182 43.9178C37.5341 43.7558 37.7749 43.6064 38.0033 43.4818C38.1154 43.4154 38.2482 43.378 38.3728 43.3282C38.5015 43.2867 38.6219 43.2327 38.7589 43.1995C39.2862 43.0417 39.8259 42.967 40.3698 42.9379C40.9137 42.9296 41.4618 42.9587 41.9973 43.0459C42.9024 43.1912 43.7868 43.4528 44.6503 43.7517C44.1147 44.1337 43.5584 44.5073 42.9647 44.8644L42.9896 44.9059V44.91ZM45.9374 48.0447C45.3769 48.3436 44.8081 48.6176 44.231 48.8584C43.6539 49.0951 43.0685 49.2944 42.4748 49.448C41.2915 49.7427 40.0667 49.8507 38.9125 49.6182C38.3396 49.5061 37.7791 49.3276 37.2601 49.0618C36.9903 48.9456 36.7661 48.792 36.5419 48.6259C36.326 48.4598 36.135 48.2689 35.9855 48.053C35.6824 47.6295 35.5579 47.1147 35.616 46.5957C35.6368 46.3798 35.6866 46.168 35.7613 45.9563C35.9108 46.0476 36.0686 46.1348 36.2263 46.2096C37.119 46.6372 38.1071 46.795 39.0412 46.6953C39.9588 46.5957 40.8348 46.3507 41.6403 46.0144C42.4457 45.6781 43.1847 45.2546 43.8656 44.7979C44.148 44.6028 44.422 44.4035 44.6877 44.2001C44.8247 44.1046 44.9659 44.0091 45.0987 43.9136C45.1112 43.9178 45.1236 43.9219 45.1361 43.9261C45.2523 43.9676 45.3686 44.0133 45.4848 44.0548C45.8294 44.3745 46.4771 44.8644 47.2452 44.8934C47.3947 44.8976 47.5358 44.8851 47.677 44.8602C47.8431 44.9184 48.0133 44.9765 48.1794 45.0305C48.7191 45.2048 49.2588 45.3709 49.7903 45.5328C48.5406 46.467 47.266 47.3222 45.9332 48.0405L45.9374 48.0447ZM65.6128 45.2588C65.6003 45.3045 65.592 45.346 65.5796 45.3917L65.5297 45.5162C65.4965 45.6034 65.4633 45.6864 65.4301 45.7695L65.2931 46.0103C65.2474 46.0933 65.2018 46.1722 65.1436 46.2469C64.9236 46.5542 64.6703 46.8448 64.3631 47.0773C63.7569 47.5589 62.9805 47.8412 62.1585 47.9409C61.3364 48.0488 60.4687 48.0031 59.5968 47.8661C58.7208 47.7291 57.8364 47.5049 56.9521 47.2184C56.5079 47.0773 56.0678 46.9154 55.6111 46.7534C55.1544 46.5915 54.6894 46.4338 54.2202 46.2843C54.0292 46.222 53.8383 46.1597 53.6473 46.0975C53.8507 45.9148 54.158 45.6532 54.569 45.3211C54.9759 44.9848 55.499 44.5904 56.1425 44.1586C56.2214 44.1087 56.3003 44.0548 56.3792 44.005C57.2801 44.3413 58.1977 44.6568 59.1401 44.9267C60.3815 45.2754 61.6644 45.5743 63.0179 45.6366C63.6905 45.6657 64.388 45.6283 65.0855 45.4332C65.264 45.3834 65.4467 45.3211 65.6211 45.2463C65.6211 45.2463 65.6211 45.2463 65.6211 45.2505L65.6128 45.2588ZM64.8447 44.6111C64.2801 44.773 63.6656 44.8146 63.047 44.7896C61.8097 44.7398 60.5683 44.4658 59.3643 44.1337C58.6627 43.9385 57.9693 43.7143 57.2843 43.4735C57.6496 43.2742 58.044 43.0791 58.4717 42.9047C58.5879 42.8591 58.7042 42.8092 58.8246 42.7636C58.945 42.722 59.0695 42.6805 59.1941 42.6349C59.4432 42.5435 59.7048 42.4854 59.9705 42.4065C60.5102 42.2861 61.0832 42.174 61.6893 42.1532C62.2913 42.1242 62.9349 42.12 63.5576 42.2861C64.1804 42.4439 64.7866 42.7843 65.2184 43.3074C65.2765 43.3697 65.3138 43.4445 65.3595 43.515L65.4301 43.623C65.455 43.6604 65.4675 43.7019 65.4841 43.7392C65.5173 43.8181 65.5546 43.8929 65.5879 43.9717C65.6086 44.0548 65.6294 44.1378 65.6543 44.2208C65.6543 44.2291 65.6584 44.2374 65.6584 44.2458C65.4176 44.4077 65.1395 44.5281 64.8447 44.6153V44.6111ZM59.3477 39.5916C59.9539 39.3466 60.5808 39.1681 61.2202 39.0726C61.8512 38.973 62.5072 38.9647 63.1508 39.0145C63.7901 39.0685 64.4212 39.1972 64.9942 39.4214C65.563 39.6456 66.0695 39.986 66.3767 40.4427C66.5345 40.6711 66.6383 40.9285 66.6964 41.2025C66.7545 41.4765 66.7545 41.763 66.7379 42.0785C66.7006 42.6847 66.5469 43.2659 66.2231 43.7102C66.1318 43.8347 66.0321 43.9468 65.92 44.0465C65.9034 43.9883 65.8868 43.9302 65.8702 43.8721C65.837 43.7808 65.7913 43.6936 65.7498 43.6064C65.729 43.5607 65.7124 43.515 65.6875 43.4777L65.6045 43.3614C65.5505 43.2825 65.5048 43.1995 65.4384 43.1289C64.9485 42.556 64.28 42.2031 63.6158 42.0495C62.9473 41.8875 62.2913 41.9083 61.6769 41.9498C61.0583 41.983 60.477 42.1076 59.929 42.2404C59.6591 42.3276 59.3934 42.3899 59.1443 42.4895C59.0197 42.5352 58.8952 42.5809 58.7748 42.6266C58.6544 42.6764 58.5381 42.7303 58.4219 42.7802C57.961 42.9836 57.5375 43.2037 57.1473 43.4279C56.7072 43.2701 56.2671 43.1082 55.8311 42.9421C55.5197 42.8217 55.2084 42.6971 54.897 42.5726C56.2878 41.3976 57.6994 40.2642 59.3477 39.5957V39.5916ZM54.2036 43.1538C54.6437 43.3365 55.0838 43.5192 55.5322 43.6936C55.7772 43.7891 56.0221 43.8846 56.2712 43.9759C56.2089 44.0174 56.1467 44.0589 56.0885 44.1004C55.4533 44.5488 54.9385 44.9557 54.5358 45.3045C54.1289 45.6449 53.83 45.9189 53.6307 46.1016C53.6307 46.1016 53.6307 46.1016 53.6265 46.1016C52.8958 45.8691 52.1526 45.6449 51.4012 45.4166C51.8994 45.0304 52.3893 44.636 52.8792 44.2375C53.3276 43.8887 53.7677 43.5192 54.2078 43.1497L54.2036 43.1538ZM53.2778 42.7594C52.9539 43.021 52.6342 43.2867 52.3146 43.5524C51.671 44.0797 51.0233 44.5987 50.3715 45.101C49.7778 44.9184 49.18 44.7232 48.5821 44.5239C49.0429 44.2582 49.3419 43.9468 49.3419 43.9468C49.3419 43.9468 48.4575 42.884 47.3199 42.8383C46.8715 42.8217 46.4564 42.967 46.1118 43.1455C46.7677 42.6141 47.3822 42.0619 47.951 41.4931C48.059 41.5845 49.0346 42.4024 50.1016 42.2861C50.5044 42.2404 50.8614 42.0702 51.1604 41.8709C51.2019 41.8875 51.2434 41.9041 51.2849 41.9207C51.5589 42.0245 51.8371 42.1408 52.1153 42.2612C52.5014 42.4273 52.8875 42.5933 53.2778 42.7636V42.7594ZM48.2583 40.6461C48.225 40.6835 48.1918 40.7209 48.1545 40.7582C48.1794 40.7209 48.2084 40.6794 48.2333 40.6378C48.2416 40.6378 48.2499 40.6461 48.2583 40.6503V40.6461ZM23.9328 36.6397C20.5574 32.7453 18.7099 27.6718 18.3445 22.5609C18.0539 18.4091 19.0254 14.3154 19.6731 10.2217C20.0135 8.26624 20.4121 3.96497 20.682 1.4988H47.0874C47.2618 3.13461 47.6811 7.07467 47.6811 7.07467C48.1794 12.2395 49.7903 17.3504 49.4291 22.5609C49.0014 28.6723 46.61 33.9036 42.6782 37.8727C42.6118 37.8561 42.5412 37.8395 42.4748 37.8229C41.3455 37.578 40.183 37.4991 39.0662 37.6029C37.9452 37.6984 36.8366 37.9599 35.8485 38.4997C35.3627 38.7778 34.9144 39.1349 34.5615 39.575C34.4784 39.6912 34.3871 39.8033 34.3123 39.9196C34.2459 40.0358 34.1712 40.1521 34.1089 40.2725C34.001 40.4842 33.9055 40.7001 33.8307 40.9243C33.8266 40.9368 33.8224 40.9492 33.8183 40.9617C33.8183 40.9492 33.81 40.9368 33.8058 40.9243C33.7311 40.7001 33.6314 40.4842 33.5276 40.2725C33.4654 40.1521 33.3906 40.0358 33.3242 39.9196C33.2495 39.8033 33.1623 39.6912 33.0751 39.575C32.7222 39.1349 32.2738 38.7778 31.788 38.4997C30.7999 37.9599 29.6914 37.6984 28.5704 37.6029C27.4536 37.5032 26.2911 37.578 25.1618 37.8229C25.1244 37.8312 25.0912 37.8395 25.0538 37.8478C24.6635 37.4576 24.2899 37.0548 23.9287 36.6397H23.9328ZM33.0668 43.9842C32.8675 44.3662 32.6018 44.7066 32.2946 44.9972C32.2863 45.0014 32.2821 45.0097 32.2738 45.018C32.2115 44.9059 32.1451 44.7938 32.0745 44.69C31.7175 44.1544 31.2649 43.706 30.7625 43.3282C30.5093 43.1414 30.2477 42.9795 29.9613 42.83C29.8159 42.747 29.6665 42.7054 29.5212 42.6515C29.3759 42.6058 29.2264 42.5394 29.0811 42.5062C28.4915 42.3401 27.8895 42.257 27.2916 42.2321C26.6938 42.228 26.1001 42.2654 25.5271 42.3691C24.5722 42.5352 23.6713 42.8134 22.7994 43.1248C23.0568 42.722 23.3682 42.0827 23.2976 41.3976C23.198 40.4178 22.3468 39.6788 22.1185 39.4961C22.9821 39.164 23.8456 38.8692 24.7092 38.6408C27.1297 40.9202 30.0069 42.7179 33.0668 43.9842ZM15.5213 42.257C15.7995 42.1408 16.0776 42.0245 16.3516 41.9166C16.3724 41.9083 16.389 41.9 16.4098 41.8958C16.7004 42.0827 17.045 42.2404 17.427 42.282C18.494 42.3982 19.4738 41.5844 19.5817 41.489C20.1505 42.0578 20.7609 42.61 21.421 43.1414C21.0764 42.9629 20.6571 42.8175 20.2128 42.8341C19.0752 42.8757 18.1909 43.9427 18.1909 43.9427C18.1909 43.9427 18.5064 44.2707 18.9922 44.5405C18.4151 44.7315 17.8421 44.9183 17.2692 45.0969C16.6174 44.5945 15.9738 44.0755 15.3261 43.5483C15.0065 43.2825 14.6868 43.0168 14.3629 42.7553C14.7532 42.5892 15.1435 42.419 15.5254 42.2529L15.5213 42.257ZM14.7574 44.2375C15.2431 44.636 15.7372 45.0304 16.2354 45.4166C15.4839 45.6449 14.7407 45.8733 14.01 46.1016C14.01 46.1016 14.01 46.1016 14.0059 46.1016C13.8066 45.9148 13.5077 45.6449 13.1008 45.3045C12.6981 44.9557 12.1832 44.5488 11.548 44.1004C11.4899 44.0589 11.4276 44.0174 11.3653 43.9759C11.6144 43.8846 11.8594 43.7891 12.1044 43.6936C12.5527 43.5192 12.997 43.3365 13.4329 43.1538C13.873 43.5233 14.3131 43.8887 14.7615 44.2416L14.7574 44.2375ZM0.936001 41.2025C0.989974 40.9285 1.09792 40.6711 1.25569 40.4427C1.56292 39.9819 2.06945 39.6414 2.63824 39.4214C3.21119 39.193 3.84226 39.0685 4.48164 39.0145C5.12517 38.9647 5.777 38.973 6.41223 39.0726C7.05161 39.1681 7.67853 39.3466 8.28469 39.5916C9.93296 40.2642 11.3446 41.3976 12.7354 42.5684C12.424 42.693 12.1127 42.8175 11.8013 42.9379C11.3653 43.104 10.9294 43.2701 10.4851 43.4237C10.099 43.1995 9.67554 42.9795 9.21054 42.776C9.09429 42.7262 8.97804 42.6722 8.85764 42.6224C8.73724 42.5767 8.61268 42.5311 8.48813 42.4854C8.23902 42.3857 7.97331 42.3235 7.70344 42.2363C7.1554 42.0993 6.57415 41.9789 5.95553 41.9457C5.34106 41.9041 4.68508 41.8834 4.01664 42.0453C3.35235 42.1989 2.68806 42.5518 2.194 43.1248C2.12757 43.1954 2.0819 43.2784 2.02793 43.3573L1.94489 43.4735C1.91998 43.515 1.90337 43.5607 1.88261 43.6022C1.8411 43.6894 1.79543 43.7766 1.76221 43.8679C1.7456 43.9261 1.729 43.9842 1.71239 44.0423C1.60029 43.9427 1.4965 43.8306 1.40931 43.706C1.08547 43.2659 0.93185 42.6847 0.894483 42.0744C0.877876 41.763 0.877876 41.4724 0.936001 41.1983V41.2025Z" fill="white"/>
<path d="M9.59375 26.0234V26.0316L9.59784 26.0234H9.59375Z" fill="white"/>
</svg>
